<svg width="64" height="64" fill="none" xmlns="http://www.w3.org/2000/svg"><g clip-path="url(#clip0)" fill="#fff"><path d="M54.642 43.535a.92.92 0 01-.617-.224.938.938 0 01-.089-1.324c11.331-12.96 9.577-25.219 2.81-31.619-3.065-2.9-7.033-4.493-11.183-4.493h-.1c-4.602.029-9.032 1.995-12.809 5.687a.938.938 0 01-1.31 0c-3.766-3.68-8.181-5.647-12.77-5.687-4.174-.035-8.173 1.54-11.266 4.439a.937.937 0 11-1.282-1.368C9.472 5.716 13.933 3.966 18.59 4c4.814.042 9.433 1.976 13.408 5.602C35.987 5.963 40.62 4.03 45.45 4c4.67-.033 9.142 1.749 12.584 5.006 3.946 3.732 6.063 8.926 5.961 14.625-.115 6.477-3.105 13.25-8.648 19.59a.948.948 0 01-.706.314zM31.999 60.052a3.17 3.17 0 01-1.498-.377c-8.844-4.738-15.927-9.973-21.053-15.561-4.567-4.98-7.52-10.15-8.779-15.37-1.476-6.123-.492-12.09 2.772-16.8a.938.938 0 111.541 1.068c-2.955 4.265-3.839 9.695-2.49 15.292 1.183 4.907 3.988 9.8 8.338 14.542 4.983 5.432 11.9 10.538 20.556 15.177.384.205.842.205 1.225 0 7.67-4.11 13.995-8.603 18.799-13.355a.937.937 0 111.318 1.334c-4.932 4.878-11.403 9.48-19.231 13.673-.47.251-.984.377-1.498.377z"/><path d="M39.798 46.53c-1.228-.001-2.473-.287-3.79-.59-1.317-.304-2.68-.618-4.01-.618-1.328 0-2.69.314-4.008.617-1.317.304-2.562.59-3.79.59-2.292 0-3.997-1.081-5.214-3.306-1.892-3.46-1.184-7.025.11-9.208 1.148-1.936 2.822-3.092 4.477-3.092 1.527 0 2.26-.773 3.19-1.752 1.086-1.145 2.438-2.57 5.236-2.57 2.798 0 4.15 1.425 5.237 2.57.929.979 1.662 1.752 3.188 1.752 1.656 0 3.33 1.156 4.477 3.092 1.294 2.183 2.003 5.748.11 9.208-1.216 2.225-2.921 3.306-5.213 3.306zm-7.8-3.083c1.543 0 3.011.338 4.43.665 1.211.279 2.355.542 3.37.542 1.134 0 2.445-.277 3.568-2.33a7.465 7.465 0 00-.078-7.353c-.782-1.32-1.907-2.173-2.864-2.173-2.331 0-3.51-1.24-4.548-2.336-1.012-1.065-1.885-1.985-3.877-1.985-1.992 0-2.866.92-3.877 1.985-1.04 1.095-2.217 2.336-4.549 2.336-.957 0-2.08.853-2.863 2.173a7.466 7.466 0 00-.079 7.353c1.123 2.053 2.434 2.33 3.57 2.33 1.014 0 2.157-.263 3.369-.542 1.419-.327 2.886-.665 4.429-.665zM27.286 26.709c-2.063 0-3.741-2.12-3.741-4.726s1.678-4.726 3.741-4.726 3.741 2.12 3.741 4.726-1.678 4.726-3.74 4.726zm0-7.577c-1.012 0-1.866 1.305-1.866 2.85 0 1.546.854 2.852 1.866 2.852 1.011 0 1.866-1.306 1.866-2.851 0-1.546-.855-2.851-1.866-2.851zM19.965 30.827c-1.371 0-2.73-.796-3.635-2.128-1.43-2.102-1.269-4.793.366-6.125 1.88-1.532 4.456-.399 5.682 1.405 1.43 2.104 1.27 4.794-.366 6.127a3.204 3.204 0 01-2.047.72zm-1.221-7.1c-.329 0-.62.102-.863.3-.858.7-.858 2.356-.001 3.618.59.868 1.939 1.83 2.947 1.007.858-.7.859-2.357 0-3.618-.547-.806-1.346-1.306-2.083-1.306zM36.712 26.709c-2.063 0-3.742-2.12-3.742-4.726s1.679-4.726 3.742-4.726c2.063 0 3.74 2.12 3.74 4.726s-1.677 4.726-3.74 4.726zm0-7.577c-1.012 0-1.867 1.305-1.867 2.85 0 1.546.855 2.852 1.867 2.852 1.01 0 1.866-1.306 1.866-2.851 0-1.546-.855-2.851-1.866-2.851zM44.033 30.827c-.76 0-1.468-.25-2.047-.722-1.635-1.332-1.796-4.023-.367-6.125 1.22-1.796 3.794-2.945 5.683-1.407 1.635 1.333 1.795 4.024.366 6.126-.905 1.332-2.264 2.128-3.635 2.128zm1.221-7.11c-.807 0-1.645.671-2.084 1.317-.858 1.261-.858 2.919 0 3.618 1.009.822 2.36-.142 2.947-1.007.858-1.262.858-2.918 0-3.618a1.332 1.332 0 00-.863-.31z"/></g><defs><clipPath id="clip0"><path fill="#fff" d="M0 0h64v64H0z"/></clipPath></defs></svg>