<svg width="96" height="96" fill="none" xmlns="http://www.w3.org/2000/svg"><path d="M60.824 64.003h-.004a1.6 1.6 0 10.001 3.2h.003a1.602 1.602 0 011.6 1.599 1.6 1.6 0 001.6 1.598h.002a1.6 1.6 0 001.598-1.602 4.805 4.805 0 00-4.8-4.795zM41.602 70.403l3.2-.003a1.6 1.6 0 10-.002-3.2h-.002l-3.2.003a1.6 1.6 0 10.002 3.2h.002zM42.23 63.756l3.008 1.092a1.6 1.6 0 101.093-3.008l-3.008-1.092a1.6 1.6 0 00-1.093 3.008zM46.821 73.062a1.6 1.6 0 00-1.576-.277l-3.006 1.097a1.6 1.6 0 001.097 3.006l3.006-1.097a1.6 1.6 0 00.48-2.73zM80 67.197h-.002l-3.2.003a1.6 1.6 0 00.002 3.2h.001l3.2-.003a1.6 1.6 0 000-3.2zM75.855 64.918c.187 0 .372-.034.548-.098l3.005-1.097a1.6 1.6 0 00-1.096-3.006l-3.006 1.097a1.6 1.6 0 00.549 3.104zM79.418 73.85l-3.008-1.092a1.6 1.6 0 00-1.092 3.008l3.008 1.092a1.6 1.6 0 001.092-3.008zM33.066 6.412A11.2 11.2 0 0022.4 17.6a1.6 1.6 0 103.2 0 7.975 7.975 0 012.957-6.211 8.087 8.087 0 016.782-1.607 7.944 7.944 0 016.079 6.079 8.015 8.015 0 01-6.67 9.658A3.209 3.209 0 0032 28.675V30.4a1.6 1.6 0 103.2 0v-1.714a11.201 11.201 0 00-2.134-22.274zM34.736 35.664a1.853 1.853 0 00-.528-.337c-.39-.16-.827-.16-1.216 0a1.644 1.644 0 00-.528.337 1.844 1.844 0 00-.337.527c-.082.193-.125.4-.127.61a2.1 2.1 0 00.032.319c.017.1.05.197.095.288.035.102.084.199.145.288l.192.24c.307.292.713.458 1.136.464.21.006.418-.038.608-.128.194-.081.372-.195.528-.336l.192-.24c.06-.09.109-.186.144-.288.046-.091.078-.188.096-.288.019-.106.03-.213.032-.32a1.597 1.597 0 00-.128-.608 1.872 1.872 0 00-.336-.528z" fill="#fff"/><path d="M70.4 38.4v-32A6.408 6.408 0 0064 0H6.4A6.407 6.407 0 000 6.4v32a6.407 6.407 0 006.4 6.4H8v9.597a3.199 3.199 0 005.462 2.262c.039-.037.075-.077.108-.12l9.588-11.74H64a6.407 6.407 0 006.4-6.399zm-48 3.2c-.027 0-.05.014-.076.015-.206.031-.408.081-.604.15a1.575 1.575 0 00-.236.159 1.581 1.581 0 00-.262.215c-.018.02-.044.028-.06.05L11.2 54.383V43.2a1.6 1.6 0 00-1.6-1.6H6.4a3.203 3.203 0 01-3.2-3.2v-32a3.203 3.203 0 013.2-3.2H64a3.203 3.203 0 013.2 3.2v32a3.203 3.203 0 01-3.2 3.2H22.4z" fill="#fff"/><path d="M89.6 51.2H88v-9.597a3.2 3.2 0 00-5.463-2.262 1.27 1.27 0 00-.107.12L72.84 51.2H32a6.407 6.407 0 00-6.4 6.4v32A6.407 6.407 0 0032 96h57.6a6.407 6.407 0 006.4-6.4v-32a6.407 6.407 0 00-6.4-6.4zm3.2 38.4a3.203 3.203 0 01-3.2 3.2H32a3.203 3.203 0 01-3.2-3.2v-32a3.203 3.203 0 013.2-3.2h41.6a1.58 1.58 0 00.649-.143c.047-.03.093-.06.137-.093a1.58 1.58 0 00.396-.308c.017-.019.041-.025.057-.044l9.96-12.196V52.8a1.6 1.6 0 001.6 1.6h3.2a3.203 3.203 0 013.2 3.2v32z" fill="#fff"/><path d="M62.147 57.68a11.196 11.196 0 00-8.348 19.854c.378.298.6.752.6 1.233V80a3.19 3.19 0 001.599 2.754L56 84.802a4.815 4.815 0 001.998 3.888c.813.59 1.793.909 2.799.908.535-.001 1.067-.088 1.575-.257a4.867 4.867 0 003.23-4.705l-.001-1.881A3.19 3.19 0 0067.2 80v-1.228c.01-.499.246-.966.641-1.27a11.127 11.127 0 004.017-10.5 11.316 11.316 0 00-9.711-9.322zm-.78 28.623a1.625 1.625 0 01-1.496-.208 1.606 1.606 0 01-.671-1.297l-.002-1.598h3.203l.001 1.439a1.728 1.728 0 01-1.036 1.664zm4.464-11.291A4.83 4.83 0 0064 78.772v1.223h-.002L57.6 80v-1.233a4.76 4.76 0 00-1.802-3.732 7.998 7.998 0 015.975-14.177 8.065 8.065 0 016.925 6.641 7.962 7.962 0 01-2.867 7.513z" fill="#fff"/></svg>