<svg width="96" height="96" fill="none" xmlns="http://www.w3.org/2000/svg"><path d="M94.311 52.915a7.196 7.196 0 00-8.191-2.069l-14.724 5.857a8.767 8.767 0 01-5.844.22l-22.609-7.089a13.914 13.914 0 00-4.17-.639h-7.354a2.474 2.474 0 00-2.188-1.323h-5.08v-.057c0-1.39-1.13-2.52-2.52-2.52H2.52c-1.39 0-2.521 1.13-2.521 2.52V77.27c0 1.39 1.13 2.52 2.52 2.52h1.746a1.406 1.406 0 100-2.813H2.813v-28.87h18.525v28.87h-10.54a1.406 1.406 0 100 2.813h10.833c1.39 0 2.52-1.13 2.52-2.52v-.057h5.08c.939 0 1.757-.526 2.175-1.298 7.086 4.019 19.244 5.595 26.265 6.191a24.118 24.118 0 0010.553-1.458c11.35-4.303 21.003-13.182 25.746-18.092a7.196 7.196 0 00.341-9.641zm-65.42 20.603v.881h-4.74V50.685h4.74v22.833zM91.945 60.6c-4.58 4.74-13.88 13.307-24.72 17.416a21.326 21.326 0 01-9.317 1.285c-16.563-1.405-23.595-4.77-26.205-6.511V52.009h7.068c1.131 0 2.25.17 3.33.51l22.605 7.088.048.014c1.569.485 2.54 2.044 2.258 3.626l-.033.185a3.214 3.214 0 01-3.44 2.618l-18.701-1.757a1.407 1.407 0 00-.263 2.802l18.7 1.757c.186.018.37.026.555.026 2.865 0 5.409-2.084 5.919-4.953l.033-.184a5.943 5.943 0 00-.52-3.661 11.547 11.547 0 003.173-.762L87.16 53.46a4.391 4.391 0 014.996 1.261 4.388 4.388 0 01-.21 5.88z" fill="#fff"/><path d="M53.533 31.08a1.407 1.407 0 10-2.39-1.482 15.264 15.264 0 00-2.304 8.046c0 4.013 1.697 8.835 5.49 10.563.7.319 1.342.446 1.932.446 1.386 0 2.478-.703 3.345-1.26.423-.273.822-.529 1.238-.718 1.763-.799 3.494-.798 5.79.005.48.168.996.43 1.543.706 1.613.817 3.62 1.833 5.845.821 3.794-1.726 5.493-6.549 5.491-10.563 0-4.15-1.674-8.002-4.712-10.848-2.82-2.64-6.645-4.215-10.497-4.323a14.8 14.8 0 00-8.083 2.104 1.406 1.406 0 101.451 2.41 12.003 12.003 0 016.553-1.702c3.175.09 6.329 1.388 8.653 3.565 2.464 2.308 3.821 5.431 3.822 8.794 0 3.012-1.202 6.8-3.843 8.003-.946.43-1.912-.013-3.41-.77-.604-.307-1.228-.623-1.884-.852-3.002-1.05-5.432-1.022-7.882.089-.602.273-1.13.613-1.597.912-1.238.797-1.712 1.02-2.59.62-2.64-1.202-3.842-4.99-3.841-8 0-2.311.65-4.581 1.88-6.566zM64.176 18.513c5.105 0 9.257-4.152 9.257-9.257C73.433 4.152 69.28 0 64.176 0S54.92 4.152 54.92 9.256c0 5.105 4.152 9.257 9.256 9.257zm0-15.7a6.45 6.45 0 016.443 6.443 6.45 6.45 0 01-6.443 6.444 6.45 6.45 0 01-6.443-6.444 6.45 6.45 0 016.443-6.443zM81.883 25.28c4.24 0 7.69-3.45 7.69-7.69s-3.45-7.69-7.69-7.69-7.69 3.45-7.69 7.69 3.45 7.69 7.69 7.69zm0-12.567a4.882 4.882 0 014.877 4.878 4.882 4.882 0 01-4.877 4.876 4.882 4.882 0 01-4.876-4.876 4.882 4.882 0 014.876-4.878zM46.47 25.28c4.24 0 7.689-3.45 7.689-7.69s-3.45-7.69-7.69-7.69-7.69 3.45-7.69 7.69 3.45 7.69 7.69 7.69zm0-12.567a4.882 4.882 0 014.876 4.878 4.882 4.882 0 01-4.877 4.876 4.882 4.882 0 01-4.876-4.876 4.882 4.882 0 014.876-4.878z" fill="#fff"/></svg>