<svg width="96" height="96" fill="none" xmlns="http://www.w3.org/2000/svg"><path d="M87.242 0H22.066c-1.046 0-1.893.877-1.893 1.96v38.97H2.893C1.847 40.93 1 41.806 1 42.89v33.224C1 82.667 6.15 88 12.48 88h65.175c6.33 0 11.48-5.332 11.48-11.886V1.96c0-1.083-.848-1.96-1.893-1.96zM4.786 76.114V44.849h15.387v31.265c0 4.392-3.451 7.966-7.694 7.966-4.242 0-7.693-3.574-7.693-7.966zm80.563 0c0 4.392-3.452 7.966-7.694 7.966H20.992a12.08 12.08 0 002.967-7.966V3.92h61.39v72.194z" fill="#fff"/><path d="M51.995 22.64h24.264c1.046 0 1.894-.877 1.894-1.96 0-1.082-.848-1.96-1.894-1.96H51.995c-1.046 0-1.893.878-1.893 1.96 0 1.083.847 1.96 1.893 1.96zM51.995 44.175h24.264c1.046 0 1.894-.878 1.894-1.96 0-1.083-.848-1.96-1.894-1.96H51.995c-1.046 0-1.893.877-1.893 1.96 0 1.082.847 1.96 1.893 1.96zM51.995 65.71h24.264c1.046 0 1.894-.878 1.894-1.961 0-1.083-.848-1.96-1.894-1.96H51.995c-1.046 0-1.893.877-1.893 1.96s.847 1.96 1.893 1.96zM34.525 24.847c.358.392.856.614 1.377.614h.015a1.866 1.866 0 001.383-.639L47.699 13.03c.705-.8.65-2.04-.122-2.77a1.849 1.849 0 00-2.674.126L35.878 20.62l-2.81-3.08a1.848 1.848 0 00-2.676-.08 2.01 2.01 0 00-.076 2.772l4.21 4.615zM44.903 32.856L35.878 43.09l-2.81-3.08a1.847 1.847 0 00-2.676-.078 2.01 2.01 0 00-.076 2.77l4.21 4.615c.357.392.855.614 1.375.614h.016a1.865 1.865 0 001.383-.638L47.699 35.5c.704-.8.65-2.04-.122-2.77a1.848 1.848 0 00-2.674.126zM44.903 55.326l-9.025 10.233-2.81-3.08a1.847 1.847 0 00-2.676-.079 2.01 2.01 0 00-.076 2.771l4.21 4.614c.357.392.855.615 1.375.615h.016a1.865 1.865 0 001.383-.639L47.699 57.97c.704-.8.65-2.04-.122-2.77a1.848 1.848 0 00-2.674.127z" fill="#fff"/></svg>