<svg width="58" height="56" fill="none" xmlns="http://www.w3.org/2000/svg"><path d="M17.373 2.491c.768 0 1.434.648 1.434 1.395v5.48l7.99-5.779c.923-.648 2.152-.648 3.023 0l24.33 17.189c.563.398.666 1.195.256 1.744-.256.299-.615.498-.974.498h-1.895v28c0 1.395-1.127 2.49-2.56 2.49H8.408c-1.434 0-2.56-1.095-2.56-2.49v-28H3.901c-.717 0-1.28-.548-1.28-1.246 0-.398.204-.747.512-.996l9.27-6.726V3.886c0-.747.615-1.395 1.435-1.395h3.534zm0-2.491h-3.534c-2.203 0-3.996 1.744-3.996 3.886v8.918l-8.246 5.979c-1.742 1.196-2.1 3.537-.87 5.231a3.97 3.97 0 002.56 1.495v25.509C3.287 53.758 5.592 56 8.41 56h40.516c2.817 0 5.122-2.242 5.122-4.982V25.459c2.1-.349 3.483-2.292 3.125-4.334-.154-.947-.717-1.794-1.537-2.392L31.356 1.594C29.563.3 27.105.3 25.261 1.594l-3.893 2.84v-.498C21.368 1.744 19.576 0 17.373 0z" fill="#fff"/><path d="M39.268 44.071c-.176 1.372-1.234 2.1-2.203 2.1-.837 0-1.719-.557-1.851-1.714a3.243 3.243 0 00-.529-1.543c-.264-.514-1.146-.9-2.38-1.115-2.115-.343-4.45 0-5.332.815-.264.214-.573.514-.925 1.757-.397 1.372-1.323 1.715-2.072 1.63-.925-.13-1.586-.944-1.586-1.973 0-.986.22-1.843.396-2.786.22-.943.441-1.929.485-3.13.088-2.357-.793-3.9-2.6-4.5-1.807-.6-2.512-.729-3.57-.943-.572-.129-1.233-.257-2.247-.472-2.424-.557-4.054-2.829-3.834-5.23.132-1.414.925-2.7 2.203-3.514 1.366-.857 3.085-1.072 4.584-.515 1.542.515 1.895.772 3.525 1.672.309.172.661.386 1.102.643l.308-.771c.22-.6.882-.9 1.543-.686l2.115.771c.485.172.882.515 1.058.986.176.472.22.986.044 1.458l-.882 2.229c-.088 1.071.044 2.1.353 3.129.881 2.786 4.098 3.858 7.977 2.7 2.027-.643 2.555-3.6 2.115-5.4a.47.47 0 01.176-.472.48.48 0 01.529.043c.485.386 2.16 2.657.661 5.83-.661 1.414-1.058 2.529-.837 3.472.352 1.5.749 2.529 1.101 3.343.397.857.661 1.5.573 2.186zM42 33.612a.834.834 0 01-.308-.086c-.308-.171-.44-.557-.264-.857a3.044 3.044 0 00.264-2.315c-.22-.9-.793-1.629-1.586-2.014-.309-.172-.441-.558-.265-.858.176-.3.573-.428.882-.257a4.196 4.196 0 012.247 2.83c.309 1.07.176 2.228-.352 3.257a.778.778 0 01-.617.3zM45.57 33.912a.835.835 0 01-.308-.086c-.309-.171-.441-.557-.265-.857.705-1.329.882-2.83.441-4.244-.397-1.586-1.454-2.915-2.953-3.686-.308-.172-.44-.557-.264-.857.176-.3.573-.43.881-.258a6.844 6.844 0 013.614 4.501c.529 1.715.309 3.558-.573 5.144a.69.69 0 01-.573.343z" fill="#fff"/></svg>